# xmcd CD database file
#
# Track frame offsets:
#	150
#	11376
#	25890
#	42634
#	59672
#	75566
#	89419
#	101149
#	114060
#	129954
#	147367
#	164658
#	178376
#	193483
#	204717
#	217179
#	232422
#	248856
#
# Disc length: 3557 seconds
#
# Revision: 0
# Processed by: cddbd v1.5.1PL0 Copyright (c) Steve Scherf et al.
# Submitted via: CDex 1.51
#
DISCID=170de312
DTITLE=Various Artist - Promo Only Canada November 2004 Country Radio
DYEAR=2004
DGENRE=Country
TTITLE0=Tracy Lawrence - Sawdust On Her Halo
TTITLE1=Carolyn Dawn Johnson - Head Over High Heels
TTITLE2=Billy Dean - Let Them Be Little
TTITLE3=Big and Rich - Holy Water
TTITLE4=Carolina Rain - I Ain't Scared
TTITLE5=Brad Paisley - Mud On The Tires
TTITLE6=Josh Gracin - Nothin' To Lose
TTITLE7=LeAnn Rimes - Nothin' 'Bout Love Makes Sense
TTITLE8=Miranda Lambert - Me And Charlie Talking
TTITLE9=Jake Mathews - Signs of You Everywhere (Radio Edit)
TTITLE10=Tracy Byrd - Revenge Of A Middle-Aged Woman
TTITLE11=Duane Steele - Nobody Cheated Nobody Lied
TTITLE12=Alan Jackson - Monday Morning Church
TTITLE13=Willie Nelson with Toby Keith - Midnight Rider (Radio Edit)
TTITLE14=Shelly Fairchild - You Don't Lie Here Anymore
TTITLE15=Aaron Pritchett - John Roland Wood
TTITLE16=Tift Merritt - Good Hearted Man
TTITLE17=Lisa Hewitt - One Of These Goodbyes
EXTD=YEAR: 2004
EXTT0=
EXTT1=
EXTT2=
EXTT3=
EXTT4=
EXTT5=
EXTT6=
EXTT7=
EXTT8=
EXTT9=
EXTT10=
EXTT11=
EXTT12=
EXTT13=
EXTT14=
EXTT15=
EXTT16=
EXTT17=
PLAYORDER=
